<svg xmlns="http://www.w3.org/2000/svg" viewBox="0 0 48 48" width="48" height="48">
  <rect width="48" height="48" rx="12" fill="#F80000"/>
  <g transform="translate(8, 12)">
    <!-- Oracle Logo Text / Mark -->
    <path fill="#FFFFFF" fill-rule="evenodd" d="M6.2 0C2.8 0 0 2.8 0 6.2v11.6C0 21.2 2.8 24 6.2 24h19.6c3.4 0 6.2-2.8 6.2-6.2V6.2C32 2.8 29.2 0 25.8 0H6.2zm0 4.8h19.6c.8 0 1.4.6 1.4 1.4v11.6c0 .8-.6 1.4-1.4 1.4H6.2c-.8 0-1.4-.6-1.4-1.4V6.2c0-.8.6-1.4 1.4-1.4z" clip-rule="evenodd"/>
    <!-- ORACLE Text styling -->
    <text x="16" y="16.5" fill="#FFFFFF" font-family="-apple-system, BlinkMacSystemFont, 'Segoe UI', Roboto, sans-serif" font-weight="900" font-size="10.5" letter-spacing="0.5" text-anchor="middle">ORACLE</text>
  </g>
</svg>